<?xml version="1.0" encoding="UTF-8"?>
<svg version="1.1" xmlns="http://www.w3.org/2000/svg" width="16" height="16">
<path d="M0 0 C5.28 0 10.56 0 16 0 C16 5.28 16 10.56 16 16 C10.72 16 5.44 16 0 16 C0 10.72 0 5.44 0 0 Z " fill="#4770AA" transform="translate(0,0)"/>
<path d="M0 0 C5.28 0 10.56 0 16 0 C16 5.28 16 10.56 16 16 C10.72 16 5.44 16 0 16 C0 10.72 0 5.44 0 0 Z M1 1 C1 4.3 1 7.6 1 11 C2.98 11.99 2.98 11.99 5 13 C5 13.66 5 14.32 5 15 C6.98 15 8.96 15 11 15 C11 14.34 11 13.68 11 13 C10.34 13 9.68 13 9 13 C9 12.34 9 11.68 9 11 C10.98 11 12.96 11 15 11 C15 7.7 15 4.4 15 1 C10.38 1 5.76 1 1 1 Z " fill="#23539A" transform="translate(0,0)"/>
<path d="M0 0 C4.62 0 9.24 0 14 0 C14 3.3 14 6.6 14 10 C12.02 10 10.04 10 8 10 C8 10.66 8 11.32 8 12 C8.66 12 9.32 12 10 12 C10 12.66 10 13.32 10 14 C8.02 14 6.04 14 4 14 C4.66666667 12 5.33333333 10 6 8 C7.98 7.67 9.96 7.34 12 7 C12 5.68 12 4.36 12 3 C11.34 3 10.68 3 10 3 C10 2.34 10 1.68 10 1 C7.03 1 4.06 1 1 1 C1 3.97 1 6.94 1 10 C0.67 10 0.34 10 0 10 C0 6.7 0 3.4 0 0 Z " fill="#5278AF" transform="translate(1,1)"/>
<path d="M0 0 C0.99 0.495 0.99 0.495 2 1 C2 4.3 2 7.6 2 11 C3.32 11.66 4.64 12.32 6 13 C5.67 13.66 5.34 14.32 5 15 C6.65 15 8.3 15 10 15 C10 15.33 10 15.66 10 16 C6.7 16 3.4 16 0 16 C0 10.72 0 5.44 0 0 Z " fill="#0A4793" transform="translate(0,0)"/>
<path d="M0 0 C0.33 0 0.66 0 1 0 C1.04254356 1.99954746 1.04080783 4.00041636 1 6 C0 7 0 7 -2.06640625 7.09765625 C-2.89011719 7.08605469 -3.71382812 7.07445312 -4.5625 7.0625 C-5.38878906 7.05347656 -6.21507812 7.04445313 -7.06640625 7.03515625 C-7.70449219 7.02355469 -8.34257812 7.01195312 -9 7 C-8.34 5.68 -7.68 4.36 -7 3 C-5.68 3.33 -4.36 3.66 -3 4 C-2.67 3.34 -2.34 2.68 -2 2 C-1.34 2 -0.68 2 0 2 C0 1.34 0 0.68 0 0 Z " fill="#2A599E" transform="translate(13,2)"/>
<path d="M0 0 C2.97 0 5.94 0 9 0 C8.67 0.99 8.34 1.98 8 3 C7.4225 2.7525 6.845 2.505 6.25 2.25 C5.5075 2.1675 4.765 2.085 4 2 C1.72855926 3.85432087 1.72855926 3.85432087 0 6 C0 4.02 0 2.04 0 0 Z " fill="#184C96" transform="translate(2,2)"/>
<path d="M0 0 C0.33 0 0.66 0 1 0 C1 1.98 1 3.96 1 6 C-0.65 6 -2.3 6 -4 6 C-3.34 4.68 -2.68 3.36 -2 2 C-1.34 2 -0.68 2 0 2 C0 1.34 0 0.68 0 0 Z " fill="#1F4F98" transform="translate(13,2)"/>
</svg>
